<?xml version="1.0" encoding="UTF-8"?><svg id="Capa_1" xmlns="http://www.w3.org/2000/svg" width="143.54mm" height="98.36mm" viewBox="0 0 406.9 278.81"><defs><style>.cls-1{fill:#00d9e9;stroke:#0089d4;}.cls-1,.cls-2,.cls-3,.cls-4,.cls-5,.cls-6,.cls-7,.cls-8{stroke-miterlimit:10;}.cls-9{fill:#fff;}.cls-2,.cls-3{fill:none;}.cls-2,.cls-4,.cls-7{stroke-width:.5px;}.cls-2,.cls-7{stroke:#020202;}.cls-10{fill:#efa24d;}.cls-11{fill:#754692;}.cls-12{fill:#d82e56;}.cls-3,.cls-5,.cls-6,.cls-8{stroke:#fff;}.cls-13{fill:#ffc63f;}.cls-14{fill:#1e72af;}.cls-4{stroke:#150400;}.cls-15{fill:#ffc755;}.cls-16{fill:#b29976;}.cls-17{fill:#fff7ff;}.cls-5{fill:#070707;}.cls-18{fill:#fff02a;}.cls-6{fill:#0f1111;}.cls-8{fill:#4a5151;}.cls-19{fill:#4694f2;}.cls-20{fill:#ffc4d1;}</style></defs><path class="cls-17" d="m160.81,79.2c-.08-.64-.04-1.28-.12-1.92-.14-1.03-.61-2.01-.66-3.05-.04-.86.21-1.7.46-2.53.44-1.45.87-2.9,1.31-4.34.37-1.24.85-2.6,1.99-3.21.42-.22.91-.34,1.23-.69.32-.35.37-.87.61-1.28.45-.78,1.47-1.04,2.36-.91,1.88.27,3.26,1.88,4.38,3.41,2.54,3.49,4.81,7.37,5.26,11.66-.73-.16-1.48.16-2.08.6s-1.13.98-1.76,1.36c-1.22.74-2.71.8-4.1,1.13-1.84.45-3.5,1.4-5.32,1.92-.6.17-1.86.62-2.46.32-.69-.34-1.03-1.79-1.11-2.47Z"/><path class="cls-17" d="m219.32,86.18c1.49-.13,3.03-.1,4.41.46,1.22.49,2.33,1.4,3.64,1.49-.41.75-.72,1.55-.91,2.38-.22.93-.29,1.89-.68,2.76-.32.73-.84,1.35-1.35,1.97-1.62,1.95-3.24,3.89-4.85,5.84-.86,1.03-1.73,2.07-2.81,2.87s-2.41,1.33-3.75,1.2c-1.04-2.55-1.87-5.18-2.49-7.86-.16-.69-.31-1.39-.66-2-.35-.61-.87-1.1-1.22-1.7-.34-.59-.48-1.26-.63-1.92-.12-.48-.54-1.29-.54-1.75,0-1.08,2.26-1.41,3.2-1.73,2.8-.94,5.66-1.75,8.62-2Z"/><ellipse class="cls-20" cx="181.93" cy="105.02" rx="29.67" ry="31.24" transform="translate(33.57 253.74) rotate(-75.07)"/><ellipse class="cls-17" cx="181.93" cy="105.72" rx="25.58" ry="30.34" transform="translate(32.9 254.26) rotate(-75.07)"/><path class="cls-2" d="m172.34,92.4h0c1.17.78,2.13,1.92,2.72,3.3"/><path class="cls-7" d="m197.84,107.5c-.14.41-.31.79-.51,1.14.06-.31.09-.63.09-.96,0-2.69-2.01-4.86-4.5-4.86-1.39,0-2.63.68-3.46,1.74,0-.02.02-.05.02-.07.14-.43.33-.84.55-1.21.94-1.63,2.48-2.65,4.03-2.7.46-.02.92.05,1.37.21.01,0,.03.01.04.02,1.13.41,1.96,1.36,2.39,2.55.45,1.22.48,2.7-.01,4.15Z"/><path class="cls-2" d="m175.12,95.84s-.04-.1-.06-.14"/><path class="cls-7" d="m176.23,95.28c-.03-.29-.06-.57-.12-.84-.05-.22-.1-.43-.16-.64-.06-.24-.15-.46-.24-.67-.09-.21-.19-.41-.3-.6,0,0,0-.01-.01-.02-.05-.09-.1-.18-.16-.26-.06-.09-.12-.18-.19-.27-.06-.09-.13-.17-.2-.25-.1-.13-.21-.24-.34-.35-.08-.07-.16-.14-.25-.21-.09-.07-.19-.15-.29-.2-.1-.07-.21-.14-.32-.2-.29-.16-.61-.28-.94-.34-.32-.06-.64-.07-.96-.05-.06,0-.12.01-.19.03-.08.01-.16.03-.25.05-.08.01-.17.03-.25.06-.05.01-.1.03-.16.05-.79.28-1.54.81-2.16,1.55-.21.24-.4.5-.57.77-.24.38-.45.79-.63,1.24.3-.31.62-.58.97-.8.2-.13.42-.25.64-.34.53-.23,1.09-.36,1.68-.36.93,0,1.8.31,2.55.86h0c.86.64,1.57,1.58,2.01,2.72l.05.11c.26.69.42,1.45.45,2.26.11-.34.19-.69.26-1.06.09-.51.14-.99.14-1.47,0-.26-.01-.52-.04-.77Z"/><path class="cls-7" d="m182.4,110.24c-.25.4-.7.63-1.28.71h-.17s-.06.02-.06.02c-.94.07-5.39-2.69-5.39-2.69-.18-.24-.32-.49-.42-.72,0,0,0,0,0,0-.25-.58-.27-1.13,0-1.57.25-.4.7-.63,1.28-.72.06-.01.12-.01.19-.02.91-.07,2.09.2,3.23.83.05.03.11.06.16.09.02.01.04.02.06.04.45.27.87.57,1.22.9h0s.06.07.1.1c1.1,1.04,1.58,2.24,1.1,3.05Z"/><path class="cls-7" d="m184.45,115.58c0,2.46-2.04,4.45-4.56,4.45s-4.56-1.99-4.56-4.45c0-.34.04-.67.11-.99-.84.97-2.09,1.6-3.51,1.6-2.52,0-4.56-1.99-4.56-4.44,0-.91.27-1.75.76-2.45-.02.08-.02.16-.02.24,0,1.22.69,2.29,1.72,2.91.57.43,1.31.68,2.24.68,2.49,0,3.7-1.93,3.64-3.8l.04-.04c-.02-.2-.05-.39-.1-.58-.02-.13-.06-.26-.1-.4l4.19,2.83c-1.64.39-2.85,1.76-2.85,3.38,0,1.93,1.72,3.5,3.82,3.5,1.83,0,3.35-1.17,3.73-2.74.02.1.02.2.02.29Z"/><path class="cls-7" d="m198.99,123.6,6.26,3.58c1.49,1.08,3.08,2.36,4.72,3.82.37.32.74.66,1.11,1,.47.43.92.86,1.36,1.29-.36-.64-.82-1.32-1.35-2.02-1.12-1.46-2.58-2.98-4.27-4.39-.4-.34-.8-.66-1.2-.95-.87-.66-1.72-1.22-2.53-1.68-1.82-1.04-3.43-1.56-4.52-1.46-.21.02-.4.06-.56.12-.27.11-.48.27-.63.49.24-.05.54-.04.87.02.23.04.48.1.75.19.99.31,5.35,2.91,6.26,3.58,1.49,1.08,3.08,2.36,4.72,3.82.37.32.74.66,1.11,1,.47.43.92.86,1.36,1.29"/><path class="cls-7" d="m210.39,123.34c-1.12-.52-2.22-.99-3.26-1.41-3.48-1.38-6.42-2.12-8.23-2.02,1.69-.86,5.36-.38,9.41,1.11,1.02.38,2.07.81,3.13,1.32.63.3,1.26.62,1.88.95,3.37,1.84,5.86,3.86,7,5.55-.57-.37-1.16-.75-1.77-1.12-2.77-1.69-5.56-3.17-8.16-4.38"/><line class="cls-2" x1="179.33" y1="111.27" x2="180.88" y2="110.98"/><path class="cls-7" d="m161.42,96.98c-.23-.4-.52-.82-.86-1.25-1.16-1.51-2.89-3.19-5.01-4.84-.64-.5-1.32-.99-2.02-1.48-.74-.51-1.52-1.01-2.33-1.5-2.9-1.76-5.78-3.1-8.29-3.92,2.39-.08,6.29,1.24,10.26,3.64.37.22.73.45,1.08.68.69.45,1.34.91,1.95,1.38,1.32,1.01,2.45,2.04,3.31,3.02.61.68,1.09,1.34,1.42,1.95.4.73.6,1.39.56,1.93,0,.13-.03.27-.07.39-.23-.4-.52-.82-.86-1.25"/><path class="cls-1" d="m59.53,68.56s12.43-12.43,32-12.6c0,0-.68-28.94,5.62-34.89,0,0,13.11-13.96,23.32,7.32,0,0,2.34,3.23,1,18.55,0,0-.49,2.38,7,11.23,0,0,4.09,3.71-4.09,17.69,0,0,18.38,23,2.21,43.93,0,0-19.06,31.66-59.23,18.38,0,0-15.66-3.78-18.04-30.23,0,0,2.38-5.36-6.81-5.18,0,0-10.38-3.73-9.7-15.39,0,0-2.38-9.79-5.28-9.62,0,0-13.62-17.19-4.43-29.79,0,0,13.96-5.96,36.43,20.6Z"/><path class="cls-15" d="m45.28,99.11s-.22-13.37,8.29-25.11c0,0-10.04-23.82-27.23-21.27,0,0-5.62.85,0,14.64l9.53,16.2s-.46,18.69,9.41,15.54Z"/><path class="cls-7" d="m135.44,91.49c.68-.04,1.38-.06,2.1-.07,1.96,0,4.05.13,6.2.42.18.02.37.05.55.08,3.04.44,5.85,1.15,8.25,2.03,1,.37,1.93.76,2.78,1.18,2.49,1.23,4.28,2.66,5.07,4.11.24.44.39.89.43,1.33-.34-.46-.79-.92-1.35-1.39-1.13-.96-2.68-1.92-4.53-2.84-.89-.43-1.85-.86-2.87-1.27-1.72-.69-3.6-1.31-5.61-1.86-.27-.07-.54-.15-.81-.21-2.81-.72-5.5-1.18-7.9-1.37-.99-.08-1.93-.11-2.81-.11.16-.01.32-.02.49-.03Z"/><path class="cls-7" d="m159.19,102.35c.11.13.2.26.27.39-.25-.18-.53-.35-.86-.52-.9-.46-2.06-.91-3.46-1.31-.54-.16-1.12-.3-1.74-.44-.22-.05-.44-.1-.66-.14-1.14-.24-2.36-.44-3.65-.6-.34-.04-.68-.07-1.04-.11-4.06-.4-7.77-.27-10.3.28,1.02-1.29,5.2-1.81,10.2-1.28.43.05.86.1,1.3.16,0,0,.02,0,.03,0,1.25.18,2.44.41,3.55.68,2.17.54,3.97,1.22,5.18,1.95.33.2.62.41.85.61.13.11.23.22.33.33Z"/><path class="cls-13" d="m99.53,54.74s-3.4-14.95,0-22.95c0,0,4.26-21.96,15.83-2.89,0,0,3.23,8.17,3.06,18.04,0,0-.68,2.89,5.96,11.91,0,0,2.38,6.47-2.21,9.87,0,0-6.13-9.25-22.64-13.99Z"/><path class="cls-9" d="m60.55,116.05s13.11,1.79,11.23-6.59,4.53-17.29,7.41-19.05c0,0-18.9-17.84-4.86-28.33,8.36-6.24,17.82,2.49,16.17,15.5,0,0,.18,7.22,1.53,8s9.11,3.74,9.11,3.74l9.62,6.64s4.09,3.22,9.87-2.39c0,0,10.75-5.28,7.33,9.19s-15.22,28.11-32.87,33.09c0,0-25.13,7.29-39.37-13.91,0,0-.8-5.04,4.82-5.89Z"/><path class="cls-3" d="m49.32,107.95s1.38,6.42,5.89,13.22c6.11,9.22,17.96,19.13,39.9,14.69,0,0,47.66-13.88,29.28-59.99"/><path class="cls-5" d="m56.81,102.77s4.6-9.35,12.77-6.8c0,0-14.81-11.42-12.77,6.8Z"/><path class="cls-5" d="m102.77,83.95s3.57-7.27,13.11-4.1c0,0-11.91-15.6-13.11,4.1Z"/><path class="cls-8" d="m72.51,103.16s11.38-17.07,34.43-8.52c0,0-20.51-15.62-34.43,8.52Z"/><path class="cls-6" d="m84.21,105.11s-11.28-5.23.68-11.18c0,0,19.23-6.64,9.7,8.84,0,0-3.4,11.41,11.74,11.58,0,0,14.81.16,11.91-11.58,0,0,6.42-6.64,3.21,6.81,0,0-3.38,11.11-22.11,7.17,0,0-5.01-4.2-8.04,2.06,0,0-4.75,10.89-16.47,11.03,0,0-8.34-2.38-9.36-6.3,0,0,0-5.78,4.09-.93,0,0,8,11.18,19.06-5.86,0,0,6.6-8.83-4.43-11.64Z"/><path class="cls-14" d="m74,146.01s55.92,9.87,64.72-40.51l7.92-.39s-1.19,45.23,46.33,31.96c0,0-5.27,25.76-7.41,24.52-76.25-44.41-100.59,81.45,3.26,54.89l-4.04,40.34s-4.89,12.77-41.5,8.17c0,0-105.55-7.15-69.29-118.98Z"/><path class="cls-4" d="m215.16,120.03c-1.12-.52-2.22-.99-3.26-1.41-3.48-1.38-6.42-2.12-8.23-2.02,1.69-.86,5.36-.38,9.41,1.11,1.02.38,2.07.81,3.13,1.32.63.3,1.26.62,1.88.95,3.37,1.84,5.86,3.86,7,5.55-.57-.37-1.16-.75-1.77-1.12-2.77-1.69-5.56-3.17-8.16-4.38"/><path class="cls-19" d="m171.95,197.03c15.32-10.72,6.13-29.62,6.13-29.62-10.72-14.3-39.32-7.51-39.32-7.51l2.04,50.91,18.98-.51v-6.64l9.5,11.23,11.53-6.13-8.86-11.74Zm-6.13-6.64c-.51,3.19-6.64,2.81-6.64,2.81v-11.62c8.43-.38,7.15,5.62,6.64,8.81Z"/><path class="cls-18" d="m220.46,163.2c-18.26-15.96-32.55,3.57-32.55,3.57-9.19,18.77,0,37.28,0,37.28,5.62,11.62,23.95,9,23.95,9,11.82-3.77,15.24-19.21,15.24-19.21,3.96-16.47-6.64-30.64-6.64-30.64Zm-15.15,38.32c-3.62,0-6.55-4.57-6.55-10.21s2.93-10.21,6.55-10.21,6.55,4.57,6.55,10.21-2.93,10.21-6.55,10.21Z"/><polygon class="cls-12" points="230.42 159.91 232.71 211.33 249.95 211.97 249.95 201.52 259.27 214.9 274.07 207.12 261.95 193.22 277.78 162.69 259.78 157.46 252.76 180.31 252.76 159.91 230.42 159.91"/><path class="cls-16" d="m280.07,162.44l.51,46.98s.38,3.7,4.21,2.43l24,.27,1.53-8.18s1.53-3.7-3.7-3.06c0,0-9.96,2.04-8.04-4.34,0,0,0-2.43,8.68-.38,0,0,1.15-1.28,1.28-2.55l.89-5.36s.89-1.79-2.55-2.04c0,0-9.83,1.53-8.55-2.81,0,0-.64-3.83,2.55-3.57l9.66,1.02,1.58-21.06h-28.47s-3.61-.26-3.57,2.68Z"/><path class="cls-11" d="m314.42,159.75v21.07h10.34l1.28,30.26s9.7,5.11,15.45,0l1.02-28.21s-.38-2.55,3.96-1.79l6.64.13,1.02-21.45h-39.7Z"/><path class="cls-10" d="m356.8,159.75l1.15,51.2s-.77.79,2.17,1.16h24.38s2.43.75,3.19-1.29v-6.77s1.28-2.43-2.55-1.66l-9.19.13.13-6.77,7.15-.13s3.32.26,3.83-3.96c0,0,2.04-6.88-3.06-5.67l-7.28-.07-.26-5.37,11.44-.13,1.71-20.69h-32.81Z"/><path class="cls-14" d="m332.25,220.77h-19.02v29.89h9.45v-11.25s14.43,1.42,15.96-3.69c0,0,5.87-11.76-6.38-14.95Zm-5.89,11.87h-5.81v-5.68l5.81-.38c4.79,2.87,0,6.06,0,6.06Z"/><polygon class="cls-14" points="343.23 220.13 343.23 250.32 365.63 250.66 365.63 243.74 352.8 243.43 352.8 238.83 362.7 238.57 362.76 231.04 352.67 230.98 352.74 227.28 365.19 227.21 365.38 220.13 343.23 220.13"/><polygon class="cls-14" points="367.48 220.13 367.48 226.57 373.04 226.57 373.04 250.06 381.27 250.32 381.27 227.47 387.46 227.28 387.46 220.13 367.48 220.13"/><path class="cls-20" d="m213.02,106.14c-.08,0-.16,0-.22.01-.11-.78-.24-1.51-.37-2.23.06,0,.12,0,.18,0h0s.05,0,.08,0c1.81-.06,8.16-1.32,11.86-15.56,0,0-11.61-2.24-16.84,1.49-.84-1.48-1.43-2.2-1.43-2.2,7.12-7.11,25.39-4.27,25.39-4.27-6.96,20.42-16.1,22.58-18.66,22.77Z"/><path class="cls-20" d="m160.67,82.46c.05.07.09.12.13.18.67-.42,1.31-.8,1.94-1.16-.04-.05-.08-.1-.11-.14h0s-.03-.04-.05-.06c-1.12-1.42-4.27-7.08,4.2-19.11,0,0,9.22,7.4,9.75,13.81,1.67-.32,2.6-.34,2.6-.34.82-10.03-13.16-22.13-13.16-22.13-11.07,18.52-6.82,26.88-5.3,28.96Z"/></svg>